<?xml version="1.0" encoding="utf-8"?>
<!-- Generator: Adobe Illustrator 22.0.1, SVG Export Plug-In . SVG Version: 6.00 Build 0)  -->
<svg version="1.1" id="Layer_1" xmlns="http://www.w3.org/2000/svg" xmlns:xlink="http://www.w3.org/1999/xlink" x="0px" y="0px"
	 viewBox="0 0 64 64" style="enable-background:new 0 0 64 64;" xml:space="preserve">
<style type="text/css">
	.st0{fill:#EC3024;}
</style>
<path class="st0" d="M42.4,21.1C42.1,10.2,33.2,1.5,22.2,1.5C11.1,1.5,2,10.6,2,21.7v19.5c0,11.2,9.1,20.2,20.2,20.2h19.5
	c11.2,0,20.2-9.1,20.2-20.2C62,30.3,53.3,21.4,42.4,21.1z M41.8,53.1H22.2c-6.5,0-11.9-5.3-11.9-11.9V21.7c0-6.5,5.3-11.9,11.9-11.9
	h0c6.3,0,11.5,4.9,11.8,11.2c0,0.2,0,0.5,0,0.7v7.7h7.7c0.2,0,0.5,0,0.7,0c6.2,0.3,11.2,5.5,11.2,11.8
	C53.6,47.8,48.3,53.1,41.8,53.1z"/>
</svg>
