<?xml version="1.0" encoding="utf-8"?>
<!-- Generator: Adobe Illustrator 22.0.1, SVG Export Plug-In . SVG Version: 6.00 Build 0)  -->
<svg version="1.1" id="Layer_1" xmlns="http://www.w3.org/2000/svg" xmlns:xlink="http://www.w3.org/1999/xlink" x="0px" y="0px"
	 viewBox="0 0 64 64" style="enable-background:new 0 0 64 64;" xml:space="preserve">
<title>camera</title>
<g>
	<path d="M32.1,20.9c-7.7,0-14,6.2-14,13.7s6.3,13.7,14,13.7s14-6.2,14-13.7S39.8,20.9,32.1,20.9z M32.1,45.1
		c-5.9,0-10.7-4.7-10.7-10.5c0-5.8,4.8-10.5,10.7-10.5c5.9,0,10.7,4.7,10.7,10.5C42.8,40.4,38,45.1,32.1,45.1z"/>
	<path d="M53.1,21.1c-1.5,0-2.8,1.2-2.8,2.7s1.2,2.7,2.8,2.7s2.8-1.2,2.8-2.7l0,0C55.9,22.3,54.6,21.1,53.1,21.1z"/>
	<path d="M55.8,14.4h-5.4c-2,0-3.7-2-4.2-3.9L46,9.8c-0.7-2.6-3.2-4.5-5.9-4.5H24.2c-2.8,0-5.2,1.8-5.9,4.5l-0.2,0.7
		c-0.5,1.8-2.3,3.9-4.2,3.9H8.5c-4.1,0-7.3,3.2-7.3,7.2v28.6c0,4,3.2,7.2,7.3,7.2h47.4c4.1,0,7.3-3.2,7.3-7.2V21.6
		C63.1,17.6,59.9,14.4,55.8,14.4z M59.9,50.1c0,2.2-1.8,4-4.1,4H8.4c-2.2,0-4.1-1.8-4.1-4V21.6c0-2.2,1.8-4,4.1-4h5.4
		c3.7,0,6.6-3.2,7.4-6.2l0.2-0.7c0.3-1.2,1.4-2.1,2.8-2.1H40c1.3,0,2.4,0.9,2.8,2.1l0.2,0.7c0.8,3,3.7,6.2,7.4,6.2h5.4
		c2.2,0,4.1,1.8,4.1,4L59.9,50.1z"/>
</g>
</svg>
