<?xml version="1.0" encoding="utf-8"?>
<!-- Generator: Adobe Illustrator 22.0.1, SVG Export Plug-In . SVG Version: 6.00 Build 0)  -->
<svg version="1.1" id="Layer_1" xmlns="http://www.w3.org/2000/svg" xmlns:xlink="http://www.w3.org/1999/xlink" x="0px" y="0px"
	 viewBox="0 0 64 64" style="enable-background:new 0 0 64 64;" xml:space="preserve">
<style type="text/css">
	.st0{fill:none;stroke:#000000;stroke-width:1.5;stroke-linecap:round;stroke-miterlimit:10;}
</style>
<path d="M60.6,43.4c0,5.2-4.2,9.4-9.4,9.4h-5.1c-3.7,5.3-8.6,8.5-13.6,8.5H22.3c-10,0-19.6-12.8-19.6-29c0-0.9,0.8-1.7,1.7-1.7h46.1
	c0.9,0,1.7,0.8,1.7,1.7c0,0.6,0,1.2,0,1.7C56.9,34.4,60.6,38.5,60.6,43.4z M51.3,49.3c3.3,0,6-2.7,6-6c0-3.1-2.4-5.7-5.4-5.9
	c-0.5,4.4-1.8,8.4-3.6,11.9C49.8,49.3,49.9,49.3,51.3,49.3z M11.8,51.3c3.1,4.2,7.1,6.6,10.5,6.6h10.2c3.4,0,7.3-2.4,10.5-6.6
	c3.3-4.5,5.4-10.4,5.7-17.3H6.1C6.4,40.9,8.5,46.8,11.8,51.3z M41.5,15.9c1.8,2.5,1.8,5.1,0.8,7.5c-0.3,0.6-0.5,1.1-0.8,1.3
	c-0.6,0.8-1.6,0.9-2.4,0.3c-0.8-0.6-0.9-1.6-0.3-2.4c0.1-0.1,0.2-0.3,0.4-0.7c0.6-1.4,0.6-2.8,0-3.7L38.8,18
	C37,15.5,37,12.8,38,10.4c0.3-0.6,0.5-1.1,0.8-1.3c0.6-0.8,1.6-0.9,2.4-0.3c0.8,0.6,0.9,1.6,0.3,2.4c-0.1,0.1-0.2,0.3-0.4,0.7
	c-0.5,1.1-0.6,2.2,0.1,3.8L41.5,15.9z M13.6,22c0.6-1.3,0.6-2.7-0.4-4.1c-1.8-2.5-1.8-5.1-0.8-7.5c0.3-0.6,0.5-1.1,0.8-1.3
	c0.6-0.8,1.6-0.9,2.4-0.3c0.8,0.6,0.9,1.6,0.3,2.4c-0.1,0.1-0.2,0.3-0.4,0.7c-0.6,1.4-0.6,2.8,0.2,3.9L16,16L16,15.9
	c1.8,2.5,1.8,5.1,0.8,7.5c-0.3,0.6-0.5,1.1-0.8,1.3c-0.6,0.8-1.6,0.9-2.4,0.3c-0.8-0.6-0.9-1.6-0.3-2.4C13.3,22.6,13.4,22.4,13.6,22
	z M28.5,25c-0.7,0.6-1.8,0.6-2.4-0.1c-0.6-0.7-0.6-1.8,0.1-2.4c0.1-0.1,0.4-0.4,0.6-0.8c1.1-1.7,1.1-3.8-0.8-6.3
	c-2.8-3.7-2.8-7.2-1.1-10.1c0.4-0.7,0.9-1.3,1.3-1.6c0.7-0.6,1.8-0.6,2.4,0.1c0.6,0.7,0.6,1.8-0.1,2.4c-0.1,0.1-0.4,0.4-0.6,0.8
	c-1.1,1.7-1.1,3.8,0.8,6.3c2.8,3.7,2.8,7.2,1.1,10.1C29.3,24.2,28.9,24.7,28.5,25z"/>
<circle cx="20.1" cy="42.9" r="1.9"/>
<circle cx="35.3" cy="42.9" r="1.9"/>
<path class="st0" d="M23.8,47.6c0,0,3.5,3.9,7.5,0"/>
</svg>
