<?xml version="1.0" encoding="utf-8"?>
<!-- Generator: Adobe Illustrator 22.0.1, SVG Export Plug-In . SVG Version: 6.00 Build 0)  -->
<svg version="1.1" id="Layer_1" xmlns="http://www.w3.org/2000/svg" xmlns:xlink="http://www.w3.org/1999/xlink" x="0px" y="0px"
	 viewBox="0 0 64 64" style="enable-background:new 0 0 64 64;" xml:space="preserve">
<style type="text/css">
	.st0{fill:none;stroke:#000000;stroke-width:1.5;stroke-linecap:round;stroke-miterlimit:10;}
	.st1{fill:none;stroke:#000000;stroke-width:3.5;stroke-linecap:round;stroke-linejoin:round;stroke-miterlimit:10;}
	.st2{fill:none;stroke:#000000;stroke-width:2;stroke-linecap:round;stroke-linejoin:round;stroke-miterlimit:10;}
</style>
<g>
	<ellipse cx="23.5" cy="28.3" rx="2.1" ry="2"/>
	<ellipse cx="40.2" cy="28.3" rx="2.1" ry="2"/>
	<path class="st0" d="M27.6,33.3c0,0,3.8,4.1,8.2,0"/>
</g>
<g>
	<line class="st1" x1="54.5" y1="15.7" x2="9.5" y2="15.7"/>
	<polyline class="st1" points="12.7,15.7 13.6,25.1 15.3,25.9 19.3,61.1 44.5,61.1 48.2,25.8 49.6,25.1 51,15.7 	"/>
	<polygon class="st1" points="38.9,15.7 46.5,3.1 50.8,5.4 44.8,15.7 	"/>
	<ellipse class="st2" cx="29.4" cy="48.5" rx="2.5" ry="2.4"/>
	<ellipse class="st2" cx="38.9" cy="47.5" rx="2.5" ry="2.4"/>
	<ellipse class="st2" cx="35.6" cy="55.3" rx="2.5" ry="2.4"/>
	<ellipse class="st2" cx="25.4" cy="55.5" rx="2.5" ry="2.4"/>
</g>
</svg>
