<?xml version="1.0" encoding="utf-8"?>
<!-- Generator: Adobe Illustrator 22.0.1, SVG Export Plug-In . SVG Version: 6.00 Build 0)  -->
<svg version="1.1" id="Layer_1" xmlns="http://www.w3.org/2000/svg" xmlns:xlink="http://www.w3.org/1999/xlink" x="0px" y="0px"
	 viewBox="0 0 64 64" style="enable-background:new 0 0 64 64;" xml:space="preserve">
<style type="text/css">
	.st0{fill:none;stroke:#050505;stroke-width:3;stroke-linecap:round;stroke-miterlimit:10;}
	.st1{fill:none;stroke:#000000;stroke-width:1.5;stroke-linecap:round;stroke-miterlimit:10;}
</style>
<g>
	<path class="st0" d="M2.5,16.4c0-5.9,4.8-10.7,10.7-10.7c3,0-0.9,7.9,1.1,9.9c1.9,1.9,9.6-2.1,9.6,0.8c0,5.9-4.8,10.7-10.7,10.7
		S2.5,22.3,2.5,16.4z"/>
	<path class="st0" d="M11.6,27.1c0,0-3,10.4,9.5,11.8"/>
	<path class="st0" d="M7.6,45.1c0,0,6.1,3,13.4,2"/>
	<path class="st0" d="M9.5,60.3c0,0,6.4,0.1,11.5-5.1"/>
	<path class="st0" d="M61.5,16.4c0-5.9-4.8-10.7-10.7-10.7c-3,0,0.9,7.9-1.1,9.9c-1.9,1.9-9.6-2.1-9.6,0.8c0,5.9,4.8,10.7,10.7,10.7
		S61.5,22.3,61.5,16.4z"/>
	<path class="st0" d="M52.4,27.1c0,0,3,10.4-9.5,11.8"/>
	<path class="st0" d="M56.4,45.1c0,0-6.1,3-13.4,2"/>
	<path class="st0" d="M54.5,60.3c0,0-6.4,0.1-11.5-5.1"/>
	<path class="st0" d="M32.3,30.8h-0.5h-4.3c-3.5,0-6.4,2.9-6.4,6.4v16c0,3.5,2.9,6.4,6.4,6.4h4.3h0.5h4.3c3.5,0,6.4-2.9,6.4-6.4v-16
		c0-3.5-2.9-6.4-6.4-6.4H32.3z"/>
</g>
<g>
	<ellipse cx="26.5" cy="38.7" rx="1.4" ry="1.3"/>
	<ellipse cx="37.5" cy="38.7" rx="1.4" ry="1.3"/>
	<path class="st1" d="M29.2,42c0,0,2.5,2.8,5.4,0"/>
</g>
</svg>
