<?xml version="1.0" encoding="utf-8"?>
<!-- Generator: Adobe Illustrator 22.0.1, SVG Export Plug-In . SVG Version: 6.00 Build 0)  -->
<svg version="1.1" id="Layer_1" xmlns="http://www.w3.org/2000/svg" xmlns:xlink="http://www.w3.org/1999/xlink" x="0px" y="0px"
	 viewBox="0 0 64 64" style="enable-background:new 0 0 64 64;" xml:space="preserve">
<style type="text/css">
	.st0{fill:none;stroke:#000000;stroke-width:1.5;stroke-linecap:round;stroke-miterlimit:10;}
	.st1{fill:none;stroke:#000000;stroke-width:3;stroke-linecap:round;stroke-linejoin:round;stroke-miterlimit:10;}
</style>
<g>
	<ellipse cx="25.3" cy="33" rx="1.8" ry="1.8"/>
	<ellipse cx="39.8" cy="33" rx="1.8" ry="1.8"/>
	<path class="st0" d="M28.8,37.4c0,0,3.4,3.7,7.2,0"/>
</g>
<path class="st1" d="M55.4,38.5"/>
<path class="st1" d="M60,55.7c-0.2,0.2,0-44.8,0-44.8s-12.2,11.6-3.7,28.2"/>
<g>
	<path class="st1" d="M4,12v8.1c0,3.2,2.6,5.8,5.8,5.8h0c3.2,0,5.8-2.6,5.8-5.8V12"/>
	<line class="st1" x1="9.8" y1="12" x2="9.8" y2="55.7"/>
</g>
<path class="st1" d="M26.3,7.7v1.5c0,1.3-1,2.3-2.3,2.3h0c-1.3,0-2.3,1-2.3,2.3v0.7"/>
<path class="st1" d="M36.3,7.7v1.5c0,1.3-1,2.3-2.3,2.3h0c-1.3,0-2.3,1-2.3,2.3v0.7"/>
<path class="st1" d="M46.4,7.7v1.5c0,1.3-1,2.3-2.3,2.3h0c-1.3,0-2.3,1-2.3,2.3v0.7"/>
<circle class="st1" cx="32.4" cy="34.8" r="15.6"/>
</svg>
