<?xml version="1.0" encoding="utf-8"?>
<!-- Generator: Adobe Illustrator 22.0.1, SVG Export Plug-In . SVG Version: 6.00 Build 0)  -->
<svg version="1.1" id="Layer_1" xmlns="http://www.w3.org/2000/svg" xmlns:xlink="http://www.w3.org/1999/xlink" x="0px" y="0px"
	 viewBox="0 0 64 64" style="enable-background:new 0 0 64 64;" xml:space="preserve">
<g id="Layer_2_1_">
</g>
<g id="Layer_1_1_">
	<g>
		<path d="M27.9,50.2v7.2c1.5,0.3,3.3,0.5,5.2,0.5c1.3,0,2.5-0.1,3.5-0.2v-7.2c-1.1,0.1-2.3,0.2-3.5,0.2
			C31.4,50.6,29.6,50.4,27.9,50.2z"/>
		<path d="M27.9,40.6v7.2c1.5,0.3,3.3,0.5,5.2,0.5c1.3,0,2.5-0.1,3.5-0.2v-7.2c-1.1,0.1-2.3,0.2-3.5,0.2
			C31.4,41,29.6,40.9,27.9,40.6z"/>
		<path d="M45,28.7c-2.5,1.9-7.2,2.9-11.8,2.9c-1.8,0-3.6-0.1-5.2-0.4v7.2c1.5,0.3,3.3,0.5,5.2,0.5c1.3,0,2.5-0.1,3.6-0.2
			c0.5-2.6,3.9-4.3,8.2-5.1V28.7z"/>
		<path d="M27.9,21.5v7.2c1.5,0.3,3.3,0.5,5.2,0.5c7.2,0,11.8-2.3,11.8-4v-6.1C42.4,21,37.8,22,33.2,22C31.4,22,29.6,21.8,27.9,21.5
			z"/>
		<path d="M45,15.7V9.6c-2.5,1.9-7.2,2.9-11.8,2.9s-9.3-0.9-11.8-2.9v5.1c3.3,0.9,5.9,2.4,6.4,4.5c1.6,0.3,3.4,0.5,5.4,0.5
			C40.4,19.7,45,17.3,45,15.7z"/>
		<path d="M33.2,10.2c7.2,0,11.7-2.4,11.7-4s-4.6-4-11.8-4s-11.8,2.4-11.8,4S26,10.2,33.2,10.2z"/>
		<path d="M2.3,52.2v6.1c0,1.6,4.6,4,11.8,4s11.8-2.4,11.8-4v-6.1C23.4,54,18.8,55,14.1,55S4.9,54,2.3,52.2z"/>
		<path d="M2.3,42.6v6.1c0,1.6,4.6,4,11.8,4s11.8-2.4,11.8-4v-6.1c-2.5,1.9-7.2,2.9-11.8,2.9S4.9,44.5,2.3,42.6z"/>
		<path d="M2.3,33.1v6.1c0,1.6,4.6,4,11.8,4s11.8-2.4,11.8-4v-6.1C23.4,35,18.8,36,14.1,36S4.9,35,2.3,33.1z"/>
		<path d="M2.3,23.6v6.1c0,1.6,4.6,4,11.8,4s11.8-2.4,11.8-4v-6.1c-2.5,1.9-7.2,2.9-11.8,2.9S4.9,25.4,2.3,23.6z"/>
		<path d="M14.1,16.2c-7.2,0-11.8,2.3-11.8,4c0,1.6,4.6,4,11.8,4s11.8-2.4,11.8-4C26,18.5,21.3,16.2,14.1,16.2z"/>
		<path d="M38.7,52.2v6.1c0,1.6,4.6,4,11.8,4s11.8-2.4,11.8-4v-6.1C59.8,54,55.1,55,50.5,55C45.9,55,41.3,54,38.7,52.2z"/>
		<path d="M38.7,42.6v6.1c0,1.6,4.6,4,11.8,4s11.8-2.4,11.8-4v-6.1c-2.5,1.9-7.2,2.9-11.8,2.9C45.9,45.5,41.3,44.5,38.7,42.6z"/>
		<path d="M38.7,39.2c0,1.6,4.6,4,11.8,4s11.8-2.4,11.8-4c0-1.6-4.6-4-11.8-4C43.3,35.3,38.7,37.6,38.7,39.2z"/>
	</g>
</g>
</svg>
