<?xml version="1.0" encoding="utf-8"?>
<!-- Generator: Adobe Illustrator 22.0.1, SVG Export Plug-In . SVG Version: 6.00 Build 0)  -->
<svg version="1.1"
	 id="Layer_1" xmlns:cc="http://creativecommons.org/ns#" xmlns:dc="http://purl.org/dc/elements/1.1/" xmlns:inkscape="http://www.inkscape.org/namespaces/inkscape" xmlns:rdf="http://www.w3.org/1999/02/22-rdf-syntax-ns#" xmlns:sodipodi="http://sodipodi.sourceforge.net/DTD/sodipodi-0.dtd" xmlns:svg="http://www.w3.org/2000/svg"
	 xmlns="http://www.w3.org/2000/svg" xmlns:xlink="http://www.w3.org/1999/xlink" x="0px" y="0px" viewBox="0 0 64 64"
	 style="enable-background:new 0 0 64 64;" xml:space="preserve">
<g transform="translate(0,-952.36218)">
	<path d="M58.6,954.4H5.4c-1.8,0-3.4,2-3.4,4.3v39.4c0,2.3,1.6,4.3,3.4,4.3h8.2v10.3c0,0.6,0.3,1.3,0.8,1.5c0.2,0.1,0.4,0.2,0.6,0.2
		c0.3,0,0.6-0.2,0.8-0.3l11.9-11.7h31c1.8,0,3.4-2,3.4-4.3v-39.4C62,956.3,60.4,954.4,58.6,954.4z M49.7,986.9H14.3
		c-0.7,0-1.4-0.9-1.4-1.7c0-0.9,0.5-1.7,1.4-1.7h35.5c0.7,0,1.4,0.8,1.4,1.7C51.1,986.2,50.5,986.9,49.7,986.9z M49.7,973.2H14.3
		c-0.7,0-1.4-0.9-1.4-1.7c0-0.9,0.5-1.7,1.4-1.7h35.5c0.7,0,1.4,0.8,1.4,1.7C51.1,972.4,50.5,973.2,49.7,973.2z"/>
</g>
</svg>
