<?xml version="1.0" encoding="utf-8"?>
<!-- Generator: Adobe Illustrator 22.0.1, SVG Export Plug-In . SVG Version: 6.00 Build 0)  -->
<svg version="1.1" id="Layer_1" xmlns="http://www.w3.org/2000/svg" xmlns:xlink="http://www.w3.org/1999/xlink" x="0px" y="0px"
	 viewBox="0 0 64 64" style="enable-background:new 0 0 64 64;" xml:space="preserve">
<style type="text/css">
	.st0{display:none;enable-background:new    ;}
	.st1{display:inline;}
	.st2{enable-background:new    ;}
	.st3{fill:none;stroke:#000000;stroke-width:4;stroke-miterlimit:10;}
</style>
<g class="st0">
	<g class="st1">
		<g>
			<polygon points="77,-14.9 66.4,-25.5 32,8.9 -2.4,-25.5 -13,-14.9 21.4,19.5 -13,53.9 -2.4,64.5 32,30.1 66.4,64.5 77,53.9 
				42.6,19.5 			"/>
		</g>
	</g>
</g>
<g class="st2">
	<g>
		<g>
			<path d="M39.6,32.5l20.8-20.8c2.1-2.1,2.1-5.5,0-7.6s-5.5-2.1-7.6,0L32,24.9L11.2,4.1C9.1,2,5.6,2,3.6,4.1s-2.1,5.5,0,7.6
				l20.8,20.8L3.6,53.3c-2.1,2.1-2.1,5.5,0,7.6s5.5,2.1,7.6,0L32,40.1l20.8,20.8c2.1,2.1,5.5,2.1,7.6,0s2.1-5.5,0-7.6L39.6,32.5z"/>
		</g>
	</g>
</g>
<g class="st0">
	<g class="st1">
		<g>
			<polygon points="73.5,-18.4 69.9,-22 32,16 -5.9,-22 -9.5,-18.4 28.5,19.5 -9.5,57.4 -5.9,61 32,23 69.9,61 73.5,57.4 35.5,19.5 
							"/>
		</g>
	</g>
</g>
<g class="st0">
	<g class="st1">
		<g>
			<path d="M35.5,19.5l36.2-36.2c1-1,1-2.6,0-3.5s-2.6-1-3.5,0L32,16L-4.2-20.2c-1-1-2.6-1-3.5,0s-1,2.6,0,3.5l36.2,36.2L-7.7,55.7
				c-1,1-1,2.6,0,3.5s2.6,1,3.5,0L32,23l36.2,36.2c1,1,2.6,1,3.5,0s1-2.6,0-3.5L35.5,19.5z"/>
		</g>
	</g>
</g>
<g class="st0">
	<g class="st1">
		<g>
			<polygon points="52.5,7.5 44,-1 32,11 20,-1 11.5,7.5 23.5,19.5 11.5,31.5 20,40 32,28 44,40 52.5,31.5 40.5,19.5 			"/>
		</g>
	</g>
</g>
<g class="st0">
	<g class="st1">
		<g>
			<path d="M40.5,19.5l7.8-7.8c2.3-2.3,2.3-6.1,0-8.5c-2.3-2.3-6.1-2.3-8.5,0L32,11l-7.8-7.8c-2.3-2.3-6.1-2.3-8.5,0
				c-2.3,2.3-2.3,6.1,0,8.5l7.8,7.8l-7.8,7.8c-2.3,2.3-2.3,6.1,0,8.5c2.3,2.4,6.1,2.3,8.5,0L32,28l7.8,7.8c2.3,2.3,6.1,2.3,8.5,0
				c2.3-2.3,2.3-6.1,0-8.5L40.5,19.5z"/>
		</g>
	</g>
</g>
<g class="st0">
	<g class="st1">
		<g>
			<path d="M34.8,19.5L48.2,6.1c0.8-0.8,0.8-2,0-2.8s-2-0.8-2.8,0L32,16.7L18.6,3.2c-0.8-0.8-2-0.8-2.8,0s-0.8,2,0,2.8l13.4,13.5
				L15.7,32.9c-0.8,0.8-0.8,2,0,2.8s2,0.8,2.8,0L32,22.3l13.4,13.4c0.8,0.8,2,0.8,2.8,0s0.8-2,0-2.8L34.8,19.5z"/>
		</g>
	</g>
</g>
<g class="st0">
	<g class="st1">
		<g>
			<polygon points="49.7,4.7 46.8,1.8 32,16.7 17.2,1.8 14.3,4.7 29.2,19.5 14.3,34.3 17.2,37.2 32,22.3 46.8,37.2 49.7,34.3 
				34.8,19.5 			"/>
		</g>
	</g>
</g>
<g class="st0">
	<g class="st1">
		<g>
			<circle class="st3" cx="32" cy="19.5" r="43.1"/>
		</g>
	</g>
</g>
</svg>
