<?xml version="1.0" encoding="utf-8"?>
<!-- Generator: Adobe Illustrator 22.0.1, SVG Export Plug-In . SVG Version: 6.00 Build 0)  -->
<svg version="1.1" id="Layer_1" xmlns="http://www.w3.org/2000/svg" xmlns:xlink="http://www.w3.org/1999/xlink" x="0px" y="0px"
	 viewBox="0 0 64 64" style="enable-background:new 0 0 64 64;" xml:space="preserve">
<g>
	<g>
		<g>
			<path d="M56.5,19.4v-3.2c0-4.5-3.7-8.2-8.2-8.2h-1c-4.5,0-8.1,3.6-8.1,8.2v3.2c0,4.5,3.6,8.1,8.1,8.1h0.5h0.5
				C52.9,27.6,56.5,24,56.5,19.4z M48.4,2.6C55.9,2.6,62,8.7,62,16.2v3.2c0,6.8-4.9,12.4-11.4,13.4v26.8c0,1.5-1.2,2.7-2.7,2.7
				c-1.5,0-2.7-1.2-2.7-2.7V32.8c-6.5-1-11.4-6.6-11.4-13.4v-3.2c0-7.5,6.1-13.6,13.6-13.6L48.4,2.6L48.4,2.6z"/>
			<path d="M28.6,5.2v16.4c0,5.5-4.5,10-10,10H18v28.2c0,1.5-1.2,2.7-2.7,2.7s-2.7-1.2-2.7-2.7V31.6H12c-5.5,0-10-4.5-10-10V5.2
				c0-1.5,1.2-2.7,2.7-2.7s2.7,1.2,2.7,2.7v16.4c0,2.5,2,4.5,4.5,4.5h0.6V5.2c0-1.5,1.2-2.7,2.7-2.7S18,3.7,18,5.2v20.9h0.6
				c2.5,0,4.5-2,4.5-4.5V5.2c0-1.5,1.2-2.7,2.7-2.7C27.4,2.5,28.6,3.7,28.6,5.2z"/>
		</g>
	</g>
</g>
</svg>
