<?xml version="1.0" encoding="utf-8"?>
<!-- Generator: Adobe Illustrator 22.0.1, SVG Export Plug-In . SVG Version: 6.00 Build 0)  -->
<svg version="1.1"
	 id="Layer_1" xmlns:cc="http://creativecommons.org/ns#" xmlns:dc="http://purl.org/dc/elements/1.1/" xmlns:inkscape="http://www.inkscape.org/namespaces/inkscape" xmlns:rdf="http://www.w3.org/1999/02/22-rdf-syntax-ns#" xmlns:sodipodi="http://sodipodi.sourceforge.net/DTD/sodipodi-0.dtd" xmlns:svg="http://www.w3.org/2000/svg"
	 xmlns="http://www.w3.org/2000/svg" xmlns:xlink="http://www.w3.org/1999/xlink" x="0px" y="0px" viewBox="0 0 64 64"
	 style="enable-background:new 0 0 64 64;" xml:space="preserve">
<g transform="translate(0,-952.36218)">
	<path d="M9.1,954.9c-1.2,0-2.1,1.2-2.1,2v55.9c0,1.1,1,2,2.1,2h45.7c1.1,0,2.1-1,2.1-2v-43.6c0-0.5-0.2-1.1-0.6-1.4l-12.9-12.3
		c-0.4-0.4-0.9-0.6-1.5-0.6H9.1z M11.3,959h28.6v10.2c0,1.1,1,2,2.1,2h10.7v39.5H11.3V959z M44.1,961.9l5.6,5.3h-5.6V961.9z
		 M17,978.1c-1.2,0-2.1,0.9-2.1,2c0,1.2,0.9,2,2.1,2h24.3c1.2,0,2.1-0.9,2.1-2c0-1.2-0.9-2-2.1-2H17z M17,989c-1.2,0-2.1,0.9-2.1,2
		c0,1.2,0.9,2,2.1,2h30c1.2,0,2.1-0.9,2.1-2c0-1.2-0.9-2-2.1-2H17z M17,999.9c-1.2,0-2.1,0.9-2.1,2s0.9,2,2.1,2h30
		c1.2,0,2.1-0.9,2.1-2s-0.9-2-2.1-2H17z"/>
</g>
</svg>
