<?xml version="1.0" encoding="utf-8"?>
<!-- Generator: Adobe Illustrator 22.0.1, SVG Export Plug-In . SVG Version: 6.00 Build 0)  -->
<svg version="1.1" id="Layer_1" xmlns="http://www.w3.org/2000/svg" xmlns:xlink="http://www.w3.org/1999/xlink" x="0px" y="0px"
	 viewBox="0 0 64 64" style="enable-background:new 0 0 64 64;" xml:space="preserve">
<title>09</title>
<path d="M59,8.3L55.8,5c-4-4-10.4-4-14.4,0l0,0L6.7,39.6c-0.3,0.3-0.4,0.5-0.4,0.8L2.1,60c-0.2,0.9,0.3,1.8,1.3,2
	c0.2,0,0.3,0.1,0.4,0c0.1,0,0.3,0,0.3,0l19.5-4.2c0.3-0.1,0.6-0.3,0.8-0.4l34.6-34.6C63,18.8,63.1,12.4,59,8.3
	C59.1,8.4,59,8.4,59,8.3z M10.4,40.8l29.1-29.1l12.8,12.8L23.2,53.7L10.4,40.8z M8.9,44.2l10.9,10.9l-13.9,3L8.9,44.2z M56.7,20.3
	l-1.9,1.9L41.9,9.3l1.9-1.9c2.6-2.6,6.9-2.6,9.5,0l3.3,3.3C59.3,13.3,59.3,17.6,56.7,20.3L56.7,20.3z"/>
</svg>
