<?xml version="1.0" encoding="utf-8"?>
<!-- Generator: Adobe Illustrator 22.0.1, SVG Export Plug-In . SVG Version: 6.00 Build 0)  -->
<svg version="1.1" id="Layer_1" xmlns="http://www.w3.org/2000/svg" xmlns:xlink="http://www.w3.org/1999/xlink" x="0px" y="0px"
	 viewBox="0 0 64 64" style="enable-background:new 0 0 64 64;" xml:space="preserve">
<style type="text/css">
	.st0{fill:#1F2C5C;}
	.st1{fill:#1A8ACB;}
</style>
<g>
	<path class="st0" d="M60.2,27.7c-6.1-7.9-12.3-15.7-18.5-23.5c-1-1.2-2.4-2.7-4.1-1.9c-1.1,0.6-2.2,2.3-2.3,3.5
		c-0.4,4.1-0.4,8.3-0.4,12.5c0,0.5,0.5,1,0.8,1.4c2.6,3.3,5.2,6.6,7.8,9.9c0.7,0.9,1.1,1.7,1.2,2.4c-0.1,1-0.5,1.5-1.2,2.4
		c-2.6,3.3-5.2,6.6-7.8,9.9c-0.3,0.4-0.8,1-0.8,1.4c0,4.2,0,8.4,0.4,12.5c0.1,1.3,1.1,2.9,2.3,3.5c1.7,0.8,3.1-0.7,4.1-1.9
		c6.2-7.8,12.4-15.7,18.5-23.6c1.1-1.4,1.7-2.3,1.8-4.3C61.9,30.5,61.3,29.1,60.2,27.7z"/>
	<path class="st1" d="M3.8,27.7c6.1-7.9,12.3-15.7,18.5-23.5c1-1.2,2.4-2.7,4.1-1.9c1.1,0.6,2.2,2.3,2.3,3.5
		c0.4,4.1,0.4,8.3,0.4,12.5c0,0.5-0.5,1-0.8,1.4c-2.6,3.3-5.2,6.6-7.8,9.9c-0.7,0.9-1.1,1.7-1.2,2.4c0.1,1,0.5,1.5,1.2,2.4
		c2.6,3.3,5.2,6.6,7.8,9.9c0.3,0.4,0.8,1,0.8,1.4c0,4.2,0,8.4-0.4,12.5c-0.1,1.3-1.1,2.9-2.3,3.5c-1.7,0.8-3.1-0.7-4.1-1.9
		C16.1,52.1,9.9,44.2,3.8,36.3C2.7,34.9,2.1,34,2,32C2.1,30.5,2.7,29.1,3.8,27.7z"/>
</g>
</svg>
