<?xml version="1.0" encoding="utf-8"?>
<!-- Generator: Adobe Illustrator 22.0.1, SVG Export Plug-In . SVG Version: 6.00 Build 0)  -->
<svg version="1.1" id="Layer_1" xmlns="http://www.w3.org/2000/svg" xmlns:xlink="http://www.w3.org/1999/xlink" x="0px" y="0px"
	 viewBox="0 0 64 64" style="enable-background:new 0 0 64 64;" xml:space="preserve">
<title>116all</title>
<path d="M60.1,17.1h-7.6v-5.8c0-1-0.8-1.8-1.9-1.8H3.9C2.8,9.5,2,10.3,2,11.3v33.8c0,1,0.8,1.8,1.9,1.8h6.9v5.8c0,1,0.8,1.8,1.9,1.8
	H60c1.1,0,1.9-0.8,1.9-1.8V18.9C62,17.9,61.1,17.1,60.1,17.1z M5.8,43.3V13.1h42.8v30.3H5.8z M58.1,50.9H14.7v-4h35.8
	c1.1,0,1.9-0.8,1.9-1.8V20.7h5.6L58.1,50.9L58.1,50.9z"/>
<path d="M33,25.9c3.2,0,5.7-2.4,5.7-5.3s-2.6-5.3-5.7-5.3c-3.2,0-5.7,2.4-5.7,5.3C27.2,23.5,29.8,25.9,33,25.9z"/>
<path d="M38.2,28.8c-0.6-0.8-1.9-0.9-2.7-0.3c-0.1,0.1-0.2,0.2-0.3,0.3L32,32.5l-7.6-10.1c-0.6-0.8-1.8-1-2.7-0.5
	c-0.2,0.1-0.4,0.3-0.5,0.5L9.9,37.7c-0.6,0.8-0.4,1.9,0.5,2.5c0.3,0.2,0.7,0.3,1.1,0.3h32.7c1.1,0,1.9-0.8,1.9-1.8
	c0-0.4-0.1-0.8-0.5-1.1L38.2,28.8z"/>
</svg>
