<?xml version="1.0" encoding="utf-8"?>
<!-- Generator: Adobe Illustrator 22.0.1, SVG Export Plug-In . SVG Version: 6.00 Build 0)  -->
<svg version="1.1" id="Layer_1" xmlns="http://www.w3.org/2000/svg" xmlns:xlink="http://www.w3.org/1999/xlink" x="0px" y="0px"
	 viewBox="0 0 64 64" style="enable-background:new 0 0 64 64;" xml:space="preserve">
<title>Log-out</title>
<desc>Created with Sketch.</desc>
<g>
	<g transform="translate(-553.000000, -108.000000)">
		<path d="M569,126.6l-13.1,11.5l0,0c-1,0.9-1.1,2.5-0.2,3.5c0.1,0.1,0.2,0.2,0.2,0.2l13.2,11.6l0,0c1,0.9,2.5,0.8,3.4-0.1l0,0l0,0
			c0.9-0.9,0.9-2.3,0-3.2c0,0-0.1-0.1-0.1-0.1l-8.4-7.6h33.5l0,0c1.4,0,2.5-1.1,2.5-2.5l0,0l0,0c0-1.4-1.1-2.5-2.5-2.5H564l8.3-7.2
			l0,0c1-0.9,1.1-2.4,0.2-3.4c0,0,0,0,0,0l0,0l0,0C571.6,125.8,570,125.7,569,126.6z M577.5,157.5L577.5,157.5L577.5,157.5
			c1.4,0,2.5,1.1,2.5,2.5v5h27.5l0,0c1.4,0,2.5-1.1,2.5-2.5v-45l0,0c0-1.4-1.1-2.5-2.5-2.5H580v5l0,0c0,1.4-1.1,2.5-2.5,2.5l0,0l0,0
			c-1.4,0-2.5-1.1-2.5-2.5v-5c0-2.5,2.5-5,5-5h30c2.5,0,5,2.5,5,5v50c0,2.5-2.5,5-5,5h-30c-2.5,0-5-2.6-5-5l0-5l0,0
			C575,158.6,576.1,157.5,577.5,157.5C577.5,157.5,577.5,157.5,577.5,157.5z"/>
	</g>
</g>
</svg>
