<?xml version="1.0" encoding="utf-8"?>
<!-- Generator: Adobe Illustrator 23.0.0, SVG Export Plug-In . SVG Version: 6.00 Build 0)  -->
<svg version="1.1" id="Layer_1" xmlns="http://www.w3.org/2000/svg" xmlns:xlink="http://www.w3.org/1999/xlink" x="0px" y="0px"
	 viewBox="0 0 64 64" style="enable-background:new 0 0 64 64;" xml:space="preserve">
<style type="text/css">
	.st0{stroke:#000000;stroke-width:0.75;stroke-miterlimit:10;}
</style>
<g>
	<g>
		<path class="st0" d="M12.6,63c-0.2,0-0.4-0.1-0.6-0.2c-0.4-0.2-0.7-0.7-0.7-1.1v-8.9C4.8,47.2,1,39.2,1,30.7C1,14.3,14.9,1,32,1
			s31,13.3,31,29.7S49.1,60.4,32,60.4c-4,0-7.8-0.7-11.5-2.1l-7.2,4.5C13.1,62.9,12.9,63,12.6,63z M32,3.6
			C16.3,3.6,3.6,15.8,3.6,30.7c0,7.9,3.6,15.3,9.9,20.5c0.3,0.2,0.5,0.6,0.5,1v7.2l5.8-3.6c0.4-0.2,0.8-0.3,1.2-0.1
			c3.5,1.4,7.3,2.2,11.1,2.2c15.7,0,28.4-12.2,28.4-27.1S47.7,3.6,32,3.6z"/>
	</g>
	<g>
		<path class="st0" d="M12.6,39.8c-0.4,0-0.8-0.2-1-0.5c-0.4-0.5-0.3-1.2,0.1-1.7L27.2,22c0.5-0.5,1.2-0.5,1.8-0.1l8.4,7.2l13.4-7.3
			c0.6-0.3,1.3-0.2,1.7,0.4c0.4,0.5,0.3,1.2-0.1,1.7L36.8,39.4c-0.5,0.5-1.2,0.5-1.8,0.1l-8.4-7.2l-13.4,7.3
			C13,39.7,12.8,39.8,12.6,39.8z M26.8,29.4c0.3,0,0.6,0.1,0.8,0.3l8.1,7l8.3-8.3l-6.3,3.5c-0.5,0.3-1.1,0.2-1.5-0.2l-8.1-7L19.9,33
			l6.3-3.5C26.4,29.5,26.6,29.4,26.8,29.4z"/>
	</g>
</g>
</svg>
