<?xml version="1.0" encoding="utf-8"?>
<!-- Generator: Adobe Illustrator 23.0.0, SVG Export Plug-In . SVG Version: 6.00 Build 0)  -->
<svg version="1.1" id="Layer_1" xmlns="http://www.w3.org/2000/svg" xmlns:xlink="http://www.w3.org/1999/xlink" x="0px" y="0px"
	 viewBox="0 0 64 64" style="enable-background:new 0 0 64 64;" xml:space="preserve">
<g>
	<path d="M57.4,47.1c1.4-1.4,2.1-3.1,2.1-5.1c-0.1-1.9-0.9-3.7-2.4-5l-1.8-1.6c-0.9-0.8-1.4-1.9-1.4-3v-8.7c0-5.1-2.1-10.5-5.6-14.6
		C44.3,4.6,38.7,2,32.6,2l0,0c-0.2,0-0.4,0-0.6,0.1C31.8,2,31.6,2,31.5,2l0,0c-6.1,0-11.7,2.6-15.8,7.1c-3.5,4.1-5.6,9.4-5.6,14.6
		v8.7c0,1.1-0.5,2.3-1.4,3L6.8,37c-1.5,1.3-2.3,3.1-2.4,5s0.7,3.7,2.1,5.1c1.3,1.3,3.2,2.1,5.1,2.1h16.5h7.8h16.5
		C54.2,49.1,56,48.4,57.4,47.1z M28.1,46.3H11.7c-1.1,0-2.2-0.4-3-1.2s-1.3-1.9-1.3-3s0.5-2.1,1.4-2.9l1.8-1.6
		c1.5-1.3,2.4-3.2,2.4-5.1v-8.7c0-11.6,9.6-18.9,18.5-18.9c0.2,0,0.4-0.1,0.5-0.1c0.1,0.1,0.4,0.1,0.5,0.1c8.9,0,18.5,7.2,18.5,18.9
		v8.7c0,1.9,0.9,3.9,2.4,5.1l1.8,1.6c0.9,0.8,1.3,1.8,1.4,2.9c0,1.1-0.4,2.2-1.3,3c-0.8,0.8-1.8,1.2-3,1.2H35.9H28.1z"/>
	<path d="M38.3,53.1c0,3.4-2.8,6.1-6.3,6.1s-6.3-2.7-6.3-6.1c0-0.8-0.7-1.4-1.5-1.4s-1.5,0.6-1.5,1.4c0,4.9,4.1,8.9,9.2,8.9
		s9.2-4,9.2-8.9c0-0.8-0.7-1.4-1.5-1.4C38.9,51.6,38.3,52.3,38.3,53.1z"/>
</g>
</svg>
