<?xml version="1.0" encoding="utf-8"?>
<!-- Generator: Adobe Illustrator 22.0.1, SVG Export Plug-In . SVG Version: 6.00 Build 0)  -->
<svg version="1.1" id="Layer_1" xmlns="http://www.w3.org/2000/svg" xmlns:xlink="http://www.w3.org/1999/xlink" x="0px" y="0px"
	 viewBox="0 0 64 64" style="enable-background:new 0 0 64 64;" xml:space="preserve">
<title>Artboard 23</title>
<path d="M32,62.2c16.6,0,30-13.4,30-30s-13.4-30-30-30S2,15.6,2,32.2C2,48.8,15.4,62.2,32,62.2z M40.6,54c1.5-2.1,2.8-4.3,3.6-6.8
	c1.6,0.3,3.1,0.7,4.7,1.2C46.5,50.9,43.7,52.8,40.6,54z M51.7,44.9c-2-0.8-4.2-1.4-6.3-1.8c0.7-2.9,1.1-5.8,1.2-8.8h8.8
	C55,38.1,53.7,41.7,51.7,44.9z M55.3,30.1h-8.8c-0.1-3-0.5-5.9-1.2-8.8c2.1-0.4,4.2-1,6.3-1.8C53.7,22.7,55,26.3,55.3,30.1z
	 M48.9,16c-1.5,0.5-3.1,0.9-4.7,1.2c-0.9-2.4-2.1-4.7-3.6-6.8C43.7,11.7,46.5,13.5,48.9,16L48.9,16z M34.1,10.3
	c2.1,1.1,4.2,3.8,5.7,7.6c-1.8,0.2-3.7,0.4-5.7,0.4V10.3z M34.1,22.6c2.4-0.1,4.7-0.2,7-0.5c0.6,2.6,1,5.3,1.1,8h-8.1L34.1,22.6z
	 M34.1,34.4h8.2c-0.1,2.7-0.5,5.4-1.1,8c-2.3-0.3-4.7-0.5-7-0.5L34.1,34.4z M34.1,46.2c2,0.1,3.9,0.2,5.7,0.4
	c-1.5,3.8-3.6,6.5-5.7,7.6V46.2z M15.3,48.6c1.5-0.5,3-0.9,4.6-1.3c0.8,2.4,2.1,4.6,3.6,6.7C20.4,52.8,17.6,51,15.3,48.6z
	 M29.9,54.1c-2.1-1.1-4.2-3.7-5.7-7.5c1.8-0.2,3.7-0.4,5.7-0.5V54.1z M29.9,41.9c-2.3,0.1-4.7,0.3-7,0.6c-0.7-2.7-1-5.4-1.1-8.1h8.2
	L29.9,41.9z M29.9,30.1h-8.2c0.1-2.7,0.5-5.5,1.1-8.1c2.3,0.3,4.7,0.5,7,0.6V30.1z M29.9,10.3v8c-2-0.1-3.9-0.2-5.7-0.5
	C25.7,14,27.8,11.4,29.9,10.3L29.9,10.3z M23.4,10.4c-1.5,2-2.7,4.3-3.6,6.7c-1.6-0.3-3.1-0.8-4.6-1.3
	C17.6,13.4,20.4,11.6,23.4,10.4L23.4,10.4z M12.4,19.3c2,0.8,4.1,1.4,6.2,1.8c-0.7,2.9-1.1,5.9-1.2,8.9H8.7
	C9,26.2,10.3,22.5,12.4,19.3z M17.4,34.3c0.1,3,0.5,6,1.2,8.9c-2.1,0.5-4.2,1.1-6.2,1.8c-2.1-3.2-3.4-6.9-3.8-10.7L17.4,34.3z"/>
</svg>
