<?xml version="1.0" encoding="utf-8"?>
<!-- Generator: Adobe Illustrator 22.0.1, SVG Export Plug-In . SVG Version: 6.00 Build 0)  -->
<svg version="1.1" id="Layer_1" xmlns="http://www.w3.org/2000/svg" xmlns:xlink="http://www.w3.org/1999/xlink" x="0px" y="0px"
	 viewBox="0 0 64 64" style="enable-background:new 0 0 64 64;" xml:space="preserve">
<style type="text/css">
	.st0{fill:none;stroke:#000000;stroke-width:3;stroke-linecap:round;stroke-linejoin:round;stroke-miterlimit:10;}
</style>
<g>
	<line class="st0" x1="31.6" y1="19.2" x2="31.6" y2="58"/>
	<line class="st0" x1="17.1" y1="58" x2="46.2" y2="58"/>
	<path class="st0" d="M61,7v14.9l0,0c-0.2,2.3-2.9,4.1-5.4,4.1s-4.5-3.8-4.8-6.1c0-0.1,0-0.3,0-0.4c0,0.1,0,0.3,0,0.4
		C50.6,22.2,48.5,26,46,26s-4.5-3.8-4.7-6.1c0-0.1,0-0.3,0-0.4c0,0.1,0,0.3,0,0.4C41,22.2,39,26,36.5,26s-4.5-3.8-4.7-6.1
		c0-0.1,0-0.3,0-0.4c0,0.1,0,0.3,0,0.4c-0.2,2.3-2.3,6.1-4.8,6.1s-4.5-3.8-4.7-6.1c0-0.1,0-0.3,0-0.4c0,0.1,0,0.3,0,0.4
		c-0.2,2.3-2.3,6.1-4.7,6.1s-4.5-3.8-4.8-6.1c0-0.1,0-0.3,0-0.4c0,0.1,0,0.3,0,0.4c-0.2,2.3-2.3,6.1-4.7,6.1S3.2,24.2,3,21.9
		c0-0.1,0-0.3,0-0.4V7H61z"/>
</g>
</svg>
