<?xml version="1.0" encoding="utf-8"?>
<!-- Generator: Adobe Illustrator 22.0.1, SVG Export Plug-In . SVG Version: 6.00 Build 0)  -->
<svg version="1.1" id="Layer_1" xmlns="http://www.w3.org/2000/svg" xmlns:xlink="http://www.w3.org/1999/xlink" x="0px" y="0px"
	 viewBox="0 0 64 64" style="enable-background:new 0 0 64 64;" xml:space="preserve">
<g>
	<g>
		<path d="M3.3,21.6c-0.6,0-1.1-0.6-1.1-1.2V3.1c0-0.4,0.3-0.7,0.7-0.7h15.3c0.6,0,1.1,0.6,1.1,1.2s-0.5,1.2-1.1,1.2H4.4v15.7
			C4.4,21.1,3.9,21.6,3.3,21.6z"/>
	</g>
	<g>
		<path d="M61,20.8c-0.6,0-1.1-0.6-1.1-1.2V4.8H45.5c-0.6,0-1.1-0.6-1.1-1.2s0.5-1.2,1.1-1.2h16c0.4,0,0.7,0.4,0.7,0.8v16.5
			C62.1,20.3,61.7,20.8,61,20.8z"/>
	</g>
	<g>
		<path d="M18.2,62.4H3c-0.4,0-0.8-0.4-0.8-0.9V44.3c0-0.6,0.5-1.2,1.1-1.2s1.1,0.6,1.1,1.2V60h13.8c0.6,0,1.1,0.6,1.1,1.2
			S18.8,62.4,18.2,62.4z"/>
	</g>
	<g>
		<path d="M62.1,61.4c0,0.5-0.4,1-0.9,1H45.5c-0.6,0-1.1-0.6-1.1-1.2c0-0.6,0.5-1.2,1.1-1.2H60V45.1c0-0.6,0.5-1.2,1.1-1.2
			s1.1,0.6,1.1,1.2L62.1,61.4L62.1,61.4z"/>
	</g>
</g>
<g>
	<path d="M17.7,16.8v7.4c0,0.6,0.4,1,0.9,1h6.9c0.5,0,0.9-0.4,0.9-1v-7.4c0-0.6-0.4-1-0.9-1h-6.9C18,15.8,17.7,16.2,17.7,16.8z
		 M23.8,22.5h-3.7v-4h3.7V22.5z"/>
	<path d="M17.7,39.6v6.8c0,0.7,0.5,1.2,1.1,1.2h6.3c0.7,0,1.1-0.6,1.1-1.2v-6.8c0-0.7-0.5-1.2-1.1-1.2h-6.3
		C18.2,38.3,17.7,38.8,17.7,39.6z M23.8,44.9h-3.7v-4h3.7V44.9z"/>
	<path d="M38.5,17.2v6.5c0,0.8,0.6,1.4,1.3,1.4h6c0.7,0,1.3-0.6,1.3-1.4v-6.4c0-0.8-0.6-1.4-1.3-1.4h-6
		C39.1,15.8,38.5,16.5,38.5,17.2z M44.6,22.5h-3.7v-4h3.7V22.5z"/>
	<path d="M44.6,29.1v6.6h-4.9c-0.7,0-1.3,0.6-1.3,1.4l0,0c0,0.7,0.5,1.4,1.3,1.4h6.1c0.7,0,1.3-0.6,1.3-1.4v-8
		c0-0.7-0.5-1.4-1.3-1.4l0,0C45.2,27.7,44.6,28.3,44.6,29.1z"/>
	<path d="M38.5,42.3v4c0,0.7,0.5,1.4,1.3,1.4l0,0c0.7,0,1.3-0.6,1.3-1.4v-2.6h3.7v2.6c0,0.7,0.5,1.4,1.3,1.4l0,0
		c0.7,0,1.3-0.6,1.3-1.4v-4c0-0.7-0.5-1.4-1.3-1.4h-6.1C39,40.9,38.5,41.6,38.5,42.3z"/>
	<path d="M28.7,17.1L28.7,17.1c0,0.7,0.5,1.4,1.3,1.4h3.7v5.3c0,0.7,0.5,1.4,1.3,1.4l0,0c0.7,0,1.3-0.6,1.3-1.4v-6.6
		c0-0.7-0.5-1.4-1.3-1.4H30C29.3,15.8,28.7,16.4,28.7,17.1z"/>
	<path d="M33.6,29.1v4h-3.7c-0.7,0-1.3,0.6-1.3,1.4v5.3c0,0.7,0.5,1.4,1.3,1.4h3.7v5.3c0,0.7,0.5,1.4,1.3,1.4l0,0
		c0.7,0,1.3-0.6,1.3-1.4v-6.6c0-0.7-0.5-1.4-1.3-1.4h-3.7v-2.6H36v-5.3h2.4v1.3c0,0.7,0.5,1.4,1.3,1.4l0,0c0.7,0,1.3-0.6,1.3-1.4
		v-2.6c0-0.7-0.5-1.4-1.3-1.4h-4.9C34.1,27.7,33.6,28.3,33.6,29.1z"/>
	<path d="M29.9,43.6L29.9,43.6c0.7,0,1.3,0.6,1.3,1.4v1.4c0,0.7-0.5,1.4-1.3,1.4l0,0c-0.7,0-1.3-0.6-1.3-1.4V45
		C28.7,44.2,29.3,43.6,29.9,43.6z"/>
	<path d="M23.8,33h1.3c0.7,0,1.3,0.6,1.3,1.4l0,0c0,0.7-0.5,1.4-1.3,1.4h-1.3c-0.7,0-1.3-0.6-1.3-1.4l0,0C22.5,33.6,23.1,33,23.8,33
		z"/>
	<path d="M28.7,22.5v5.3h-9.8c-0.7,0-1.3,0.6-1.3,1.4v5.3c0,0.7,0.5,1.4,1.3,1.4l0,0c0.7,0,1.3-0.6,1.3-1.4v-4h9.8
		c0.7,0,1.3-0.6,1.3-1.4v-6.6c0-0.7-0.5-1.4-1.3-1.4l0,0C29.3,21.1,28.7,21.7,28.7,22.5z"/>
</g>
</svg>
