<?xml version="1.0" encoding="utf-8"?>
<!-- Generator: Adobe Illustrator 22.0.1, SVG Export Plug-In . SVG Version: 6.00 Build 0)  -->
<svg version="1.1" id="Layer_1" xmlns="http://www.w3.org/2000/svg" xmlns:xlink="http://www.w3.org/1999/xlink" x="0px" y="0px"
	 viewBox="0 0 64 64" style="enable-background:new 0 0 64 64;" xml:space="preserve">
<g>
	<path d="M3.2,8.3C2,9.5,1.7,11.3,2.4,12.9L11.3,32L2.4,51c-0.7,1.6-0.4,3.4,0.9,4.7c0.2,0.1,0.3,0.2,0.6,0.4
		c1.2,0.8,2.9,1.1,4.3,0.4l51.2-20.8c1.7-0.6,2.6-2.2,2.8-3.9c0-1.7-1.1-3.3-2.8-3.9L8.2,7.4l0,0C6.4,6.6,4.7,7,3.2,8.3z M6.4,52.7
		L15.1,34h37.1L6.4,52.7z M6.4,11.2L6.4,11.2l46,18.5l-37.1,0.1L6.4,11.2L6.4,11.2z"/>
</g>
</svg>
