<?xml version="1.0" encoding="utf-8"?>
<!-- Generator: Adobe Illustrator 22.0.1, SVG Export Plug-In . SVG Version: 6.00 Build 0)  -->
<svg version="1.1" id="Layer_1" xmlns="http://www.w3.org/2000/svg" xmlns:xlink="http://www.w3.org/1999/xlink" x="0px" y="0px"
	 viewBox="0 0 64 64" style="enable-background:new 0 0 64 64;" xml:space="preserve">
<g>
	<path d="M61.8,27.5l-0.3-1.3L54.2,25c-0.6,0-1.3-0.6-1.6-1.3c-0.3-0.6-0.3-1.3,0.3-1.9l4.4-6l-0.6-1c-1.9-2.5-4.1-5.1-7-7l-0.9-0.6
		l-6,4.5c-0.6,0.3-1.3,0.6-1.9,0.3c-0.6-0.3-1.3-1-1.3-1.6L38.4,3l-1.3-0.3c-3.5-0.6-6.3-0.6-9.8,0H26L24.8,10
		c0,0.6-0.6,1.3-1.3,1.6s-1.3,0.3-1.9-0.3l-6-4.1l-0.9,0.6c-2.8,1.9-5.1,4.1-7,7l-0.6,1l4.4,6c0.3,0.6,0.6,1.3,0.3,1.9
		S10.5,25,9.9,25l-7.3,1.3l-0.3,1.3C2,29.1,2,30.7,2,32.3c0,1.6,0,3.2,0.3,4.8l0.3,1.3l7.3,1.3c0.6,0,1.3,0.6,1.6,1.3
		c0.3,0.6,0.3,1.3-0.3,1.9l-4.4,6l0.6,1c1.9,2.5,4.1,5.1,7,7l0.9,0.6l6-4.5c0.6-0.3,1.3-0.6,1.9-0.3s1.3,1,1.3,1.6l1.3,7.3l1.3,0.3
		c1.9,0.3,3.5,0.3,4.7,0.3s3.2,0,4.7-0.3l1.3-0.3l1.3-7.3c0-0.6,0.6-1.3,1.3-1.6s1.3-0.3,1.9,0.3l6,4.5l0.9-0.6c2.5-1.9,5.1-4.1,7-7
		l0.6-1l-4.4-6c-0.3-0.6-0.6-1.3-0.3-1.9c0.3-0.6,0.9-1.3,1.6-1.3l7.3-1.3l0.3-1.3c0.3-1.9,0.3-3.5,0.3-4.8
		C62.1,30.7,62.1,29.1,61.8,27.5z M58.6,35.5l-5.1,1c-1.9,0.3-3.2,1.6-3.8,3.2c-0.6,1.6-0.6,3.5,0.6,5.1l2.8,4.1
		c-1.3,1.6-2.8,3.2-4.7,4.8l-4.1-2.9c-1.6-1-3.5-1.3-5.1-0.6s-2.8,2.2-3.2,3.8L35.2,59c-2.2,0.3-4.1,0.3-6.6,0l-0.9-5.1
		c-0.3-1.9-1.6-3.2-3.2-3.8s-3.5-0.6-5.1,0.6l-4.1,2.9c-1.6-1.3-3.2-2.9-4.7-4.8l2.8-4.1c0.9-1.6,1.3-3.5,0.6-5.1s-2.2-2.9-3.8-3.2
		l-4.7-1c0-1.3-0.3-2.2-0.3-3.2c0-1,0-2.2,0.3-3.2l5.1-1c1.9-0.3,3.2-1.6,3.8-3.2c0.6-1.6,0.6-3.5-0.6-5.1l-2.8-4.1
		c1.3-1.6,2.8-3.2,4.7-4.8l4.1,2.9c1.6,1,3.5,1.3,5.1,0.6c1.6-0.6,2.8-2.2,3.2-3.8l0.9-5.1c2.2-0.3,4.1-0.3,6.6,0l0.9,5.1
		c0.3,1.9,1.6,3.2,3.2,3.8s3.5,0.6,5.1-0.6l4.1-2.9c1.6,1.3,3.2,2.9,4.7,4.8l-2.8,4.1c-0.9,1.6-1.3,3.5-0.6,5.1
		c0.6,1.6,2.2,2.9,3.8,3.2l5.1,1c0,1.3,0.3,2.2,0.3,3.2C59.2,33.3,58.9,34.5,58.6,35.5z"/>
	<path d="M32,24.3c-4.4,0-7.9,3.5-7.9,8s3.5,8,7.9,8s7.9-3.5,7.9-8S36.5,24.3,32,24.3z M32,37.1c-2.5,0-4.7-2.2-4.7-4.8
		s2.2-4.8,4.7-4.8s4.7,2.2,4.7,4.8S34.6,37.1,32,37.1z"/>
</g>
</svg>
