<?xml version="1.0" encoding="utf-8"?>
<!-- Generator: Adobe Illustrator 22.0.1, SVG Export Plug-In . SVG Version: 6.00 Build 0)  -->
<svg version="1.1" id="Layer_1" xmlns="http://www.w3.org/2000/svg" xmlns:xlink="http://www.w3.org/1999/xlink" x="0px" y="0px"
	 viewBox="0 0 64 64" style="enable-background:new 0 0 64 64;" xml:space="preserve">
<style type="text/css">
	.st0{stroke:#000000;stroke-width:0.5;stroke-miterlimit:10;}
</style>
<title>icon-01</title>
<path class="st0" d="M50.6,39.8c-0.5,0.5-0.7,1.3-0.6,2.1l2.4,14.3c0.4,1.8-0.4,3.6-1.9,4.8s-3.4,1.3-5,0.4l-12.4-6.8
	c-0.6-0.4-1.5-0.4-2.1,0l-12.3,6.8c-0.8,0.4-1.5,0.5-2.3,0.5c-1,0-1.9-0.2-2.8-0.9c-1.5-1-2.1-3-1.9-4.8l2.4-14.3
	c0.2-0.8-0.1-1.6-0.6-2.1l-10-10.2c-1.4-1.3-1.9-3.3-1.3-5.1c0.6-1.8,2.1-3.1,3.9-3.4L19.8,19c0.8-0.1,1.4-0.6,1.8-1.3l6.1-13
	C28.5,3,30.1,2,32,2c1.9,0,3.5,1,4.2,2.7l6.1,13c0.4,0.6,1,1.2,1.8,1.3l13.8,2.1c1.9,0.3,3.3,1.6,3.9,3.4c0.5,1.8,0,3.8-1.3,5.1
	L50.6,39.8z"/>
</svg>
