<?xml version="1.0" encoding="utf-8"?>
<!-- Generator: Adobe Illustrator 22.0.1, SVG Export Plug-In . SVG Version: 6.00 Build 0)  -->
<svg version="1.1" id="Layer_1" xmlns="http://www.w3.org/2000/svg" xmlns:xlink="http://www.w3.org/1999/xlink" x="0px" y="0px"
	 viewBox="0 0 64 64" style="enable-background:new 0 0 64 64;" xml:space="preserve">
<g>
	<path d="M32,2.5c-5,0-9,4-9,8.8s4,8.8,9,8.8s9-4,9-8.8S37,2.5,32,2.5z M32,16.6c-3,0-5.4-2.4-5.4-5.3S29,6,32,6s5.4,2.4,5.4,5.3
		S35,16.6,32,16.6z"/>
	<path d="M32,23.7c-5,0-9,4-9,8.8s4,8.8,9,8.8s9-4,9-8.8S37,23.7,32,23.7z M32,37.8c-3,0-5.4-2.4-5.4-5.3s2.4-5.3,5.4-5.3
		s5.4,2.4,5.4,5.3S35,37.8,32,37.8z"/>
	<path d="M32,44.9c-5,0-9,4-9,8.8s4,8.8,9,8.8s9-4,9-8.8S37,44.9,32,44.9z M32,59c-3,0-5.4-2.4-5.4-5.3c0-2.9,2.4-5.3,5.4-5.3
		s5.4,2.4,5.4,5.3C37.4,56.6,35,59,32,59z"/>
</g>
</svg>
