<?xml version="1.0" encoding="utf-8"?>
<!-- Generator: Adobe Illustrator 23.0.0, SVG Export Plug-In . SVG Version: 6.00 Build 0)  -->
<svg version="1.1" id="Layer_1" xmlns="http://www.w3.org/2000/svg" xmlns:xlink="http://www.w3.org/1999/xlink" x="0px" y="0px"
	 viewBox="0 0 64 64" style="enable-background:new 0 0 64 64;" xml:space="preserve">
<style type="text/css">
	.st0{fill:#292C69;}
</style>
<path id="path2092" class="st0" d="M4,51.8c-0.4-0.2-0.6-0.3-1-0.7c-0.3-0.3-0.4-0.4-0.5-0.7c-0.1-0.2-0.2-0.5-0.2-0.6
	c-0.1-0.2-0.1-0.9-0.1-17.2c0-16.3,0-16.9,0.1-17.2c0.1-0.4,0.4-1,0.7-1.3c0.4-0.4,0.7-0.6,1.3-0.8l0.3-0.1l27.5,0
	c27.3,0,27.5,0,27.8,0.1c1,0.3,1.8,1,2.1,2l0.1,0.3v17v17l-0.1,0.3c-0.3,0.9-0.9,1.6-1.7,1.9l-0.3,0.1l-27.8,0l-27.8,0L4,51.8
	L4,51.8z M37.9,45.6c0.6-0.2,1.1-0.5,1.5-0.9c0.4-0.4,0.7-0.9,0.8-1.3c0.1-0.4,0.8-4.7,0.8-4.7c0-0.1-0.2-0.1-1.8-0.1
	c-1.4,0-1.8,0-1.8,0c0,0-0.2,0.8-0.3,1.8c-0.2,1.2-0.3,1.8-0.4,1.8c0,0-1.3,0-2.8,0c-2.1,0-2.7,0-2.7,0c0,0,0.1-0.9,0.4-2.8
	c0.3-1.5,0.5-2.7,0.5-2.8c0,0,1.3,0,4.5,0h4.5l0-0.1c0-0.1,0.6-3.2,0.6-3.3c0,0-1.3,0-5.2,0c-5.7,0-5.5,0-6,0.2
	c-0.5,0.2-1.1,0.7-1.5,1.2c-0.2,0.2-0.4,0.7-0.4,0.9c0,0.1-0.3,1.9-0.7,4c-0.8,4.3-0.8,4.3-0.6,4.9c0.3,0.8,0.9,1.3,1.6,1.4
	c0.1,0,2.1,0,4.4,0C37.6,45.7,37.6,45.7,37.9,45.6L37.9,45.6z M52.9,45.6c0.9-0.3,1.6-0.9,2-1.7c0.1-0.1,0.1-0.3,0.2-0.4
	s0.4-1.9,0.7-4c0.8-4.3,0.8-4.3,0.6-4.8c-0.2-0.7-0.8-1.2-1.5-1.4c-0.3-0.1-0.4-0.1-4.5-0.1c-4.6,0-4.5,0-5,0.2
	c-0.1,0.1-0.4,0.2-0.5,0.2c-0.3,0.2-0.7,0.6-1,0.9c-0.2,0.2-0.4,0.7-0.4,0.9c0,0.2-1.3,7.4-1.4,7.8c-0.1,0.5,0,1,0.3,1.5
	c0.3,0.5,0.9,0.8,1.5,0.9c0.1,0,2,0,4.4,0l4.3,0L52.9,45.6z M46.1,42.2c0,0,0.1-0.9,0.4-2.8c0.3-1.5,0.5-2.7,0.5-2.8
	c0-0.1,0.2-0.1,2.8-0.1l2.8,0l0,0.1c0,0.4-1,5.4-1,5.4c0,0-1.3,0-2.8,0C46.7,42.3,46.1,42.3,46.1,42.2L46.1,42.2z M18.6,42.6
	c0,0,0.2-0.9,0.6-2.9c0.3-1.6,0.5-2.9,0.5-2.9l0-0.1h2h2l0,0.1c0,0-0.2,1-0.4,2.2C23.1,40.6,23,41,23,41.3c0,0.5,0.1,0.7,0.4,0.9
	c0.3,0.3,0.4,0.3,1.6,0.3h1.1l0-0.1c0.1-0.3,1.3-7.1,1.3-7.3c0-0.6-0.4-1.3-0.9-1.6c-0.4-0.3-0.4-0.3-2.5-0.3c-1.7,0-1.9,0-2.1,0.1
	c-0.6,0.2-1.2,0.5-1.6,1c-0.1,0.1-0.2,0.2-0.2,0.2c0,0,0-0.3,0.1-0.7c0.1-0.4,0.1-0.7,0.1-0.7s-0.9,0-1.9,0h-1.9l0,0.1
	c0,0.1-0.4,2.1-0.8,4.6c-0.4,2.5-0.8,4.5-0.8,4.6c0,0,0,0.1,0,0.1C15,42.6,18.6,42.6,18.6,42.6L18.6,42.6z M14.6,35.2
	c0.7-1,1.3-1.9,1.4-1.9c0,0-0.2-0.1-1-0.1c-0.6,0-1.1,0-1.1,0c0,0-0.1,0.8-0.3,1.9c-0.3,1.8-0.4,2-0.3,2
	C13.2,37.1,13.9,36.2,14.6,35.2z M35.6,31.7c0,0,1.6-9.2,1.6-9.3c0-0.1-3.3-0.1-3.3,0c0,0-0.3,1.4-0.6,3.1c-0.3,2-0.6,3-0.6,3.1
	c-0.1,0-4,0-4.1,0c0,0,0.1-0.6,0.5-3c0.3-1.7,0.5-3,0.5-3.1v-0.1h-1.6c-1.5,0-1.6,0-1.7,0.1c0,0-0.3,1.7-0.7,3.8
	c-0.6,3.3-0.7,3.8-0.6,4c0.1,0.7,0.5,1.2,1.1,1.4c0.2,0.1,0.3,0.1,2.1,0.1c2.1,0,2.2,0,2.7-0.2c0.4-0.2,0.7-0.4,1.2-0.8l0.4-0.4
	l0.2,0.4c0.3,0.7,0.6,0.9,1,1C34.2,31.7,35.5,31.7,35.6,31.7z M11.6,31.5c0,0,0.4-2.3,0.9-4.9c0.5-2.7,0.9-4.9,0.9-4.9l0-0.1h2.2
	c1.7,0,2.2,0,2.2,0c0,0,0.6-2.9,0.6-3c0-0.1-0.4-0.1-6.3-0.1c-3.7,0-6.3,0-6.3,0c0,0.1-0.5,3-0.5,3c0,0,0.3,0.1,2.2,0.1h2.2l0,0.1
	c0,0-0.4,2.3-0.9,4.9c-0.5,2.7-0.9,4.9-0.9,4.9v0.1h1.9L11.6,31.5L11.6,31.5z M22.3,31.5c0.8-0.2,1.5-0.8,1.7-1.6
	c0-0.1,0.3-1.5,0.6-3c0.5-2.6,0.5-2.8,0.5-3.2c0-0.4-0.1-0.7-0.4-1c-0.2-0.2-0.4-0.4-0.7-0.4c-0.3-0.1-6.7-0.1-7.1,0
	c-0.7,0.2-1.4,0.8-1.7,1.5C15,24.1,14.1,29.5,14,30c0,0.4,0,0.6,0.2,0.9c0.2,0.3,0.6,0.6,0.9,0.7c0.1,0,1.7,0,3.5,0
	C21.6,31.6,22.1,31.6,22.3,31.5L22.3,31.5z M17.6,28.5c0,0,0-0.3,0.2-1.6l0.3-1.5l1.7,0c0.9,0,1.7,0,1.7,0c0,0-0.1,0.7-0.2,1.5
	c-0.2,1.1-0.3,1.5-0.3,1.6C20.8,28.6,17.7,28.6,17.6,28.5L17.6,28.5z M44.7,31.6c0.3-1.8,0.5-3,0.5-3c0,0-1.1,0-2.3,0
	c-1.3,0-2.3,0-2.3,0c0,0,0-0.3,0.2-1.5c0.1-0.8,0.3-1.5,0.3-1.5c0-0.1,0.2-0.1,2.4-0.1H46l0-0.1c0-0.1,0.5-2.9,0.5-3
	c0,0-1.5,0-3.3,0c-3.6,0-3.5,0-4,0.3c-0.5,0.3-1,0.8-1.2,1.4C38,24.2,37,29.8,37,30c0,0.7,0.5,1.3,1.1,1.5c0.1,0,0.9,0,3.4,0
	C43.3,31.6,44.7,31.6,44.7,31.6L44.7,31.6z M50.1,31.5c0,0,0.2-1.3,0.5-2.9s0.5-2.9,0.5-2.9l0-0.1H53c1.4,0,1.8,0,1.9,0
	c0,0-0.1,0.5-0.2,1.4c-0.5,2.8-0.6,3.1-0.5,3.4c0.1,0.5,0.3,0.8,0.6,1l0.2,0.1l1,0l1,0l0-0.1c0,0,0.3-1.7,0.7-3.7
	c0.6-3.4,0.6-3.7,0.6-4c0-0.3,0-0.4-0.1-0.6c-0.2-0.4-0.6-0.7-1.1-0.8c-0.3-0.1-3.5-0.1-3.8,0c-0.5,0.1-1.1,0.5-1.4,0.9
	c-0.1,0.1-0.2,0.3-0.2,0.3c0,0,0,0-0.1,0c0,0,0.2-1.1,0.4-2.4c0.2-1.3,0.4-2.4,0.4-2.4c0,0-3.4,0-3.4,0c0,0-2.2,12.6-2.2,12.7v0.1
	h1.7C50,31.6,50.1,31.6,50.1,31.5L50.1,31.5z"/>
</svg>
