<?xml version="1.0" encoding="utf-8"?>
<!-- Generator: Adobe Illustrator 23.0.0, SVG Export Plug-In . SVG Version: 6.00 Build 0)  -->
<svg version="1.1" id="Layer_1" xmlns="http://www.w3.org/2000/svg" xmlns:xlink="http://www.w3.org/1999/xlink" x="0px" y="0px"
	 viewBox="0 0 64 64" style="enable-background:new 0 0 64 64;" xml:space="preserve">
<style type="text/css">
	.st0{stroke:#000000;stroke-width:0.35;stroke-miterlimit:10;}
</style>
<g>
	<path class="st0" d="M48.3,29.5H15.8C8.3,29.5,2,23.3,2,15.8S8.3,2,15.8,2h32.5C55.8,2,62,8.3,62,15.8S55.8,29.5,48.3,29.5z
		 M15.8,4.5c-6.3,0-11.3,5-11.3,11.3S9.5,27,15.8,27h32.5c6.3,0,11.3-5,11.3-11.3s-5-11.3-11.3-11.3H15.8V4.5z"/>
	<path class="st0" d="M48.3,62H15.8C8.3,62,2,55.8,2,48.3s6.3-13.8,13.8-13.8h32.5c7.5,0,13.8,6.3,13.8,13.8S55.8,62,48.3,62z
		 M15.8,37C9.5,37,4.5,42,4.5,48.3s5,11.3,11.3,11.3h32.5c6.3,0,11.3-5,11.3-11.3S54.5,37,48.3,37H15.8z"/>
	<path class="st0" d="M15.8,29.5V27C22,27,27,22,27,15.8S22,4.5,15.8,4.5V2c7.5,0,13.8,6.3,13.8,13.8S23.3,29.5,15.8,29.5z"/>
	<path class="st0" d="M48.3,62c-7.5,0-13.8-6.3-13.8-13.8s6.3-13.8,13.8-13.8V37C42,37,37,42,37,48.3s5,11.3,11.3,11.3V62z"/>
</g>
</svg>
