<?xml version="1.0" encoding="utf-8"?>
<!-- Generator: Adobe Illustrator 22.0.1, SVG Export Plug-In . SVG Version: 6.00 Build 0)  -->
<svg version="1.1" id="Layer_1" xmlns="http://www.w3.org/2000/svg" xmlns:xlink="http://www.w3.org/1999/xlink" x="0px" y="0px"
	 viewBox="0 0 64 64" style="enable-background:new 0 0 64 64;" xml:space="preserve">
<g>
	<path d="M48.3,2H15.8C8.3,2,2,8.3,2,15.8s6.3,13.8,13.8,13.8h32.5c7.5,0,13.8-6.3,13.8-13.8S55.8,2,48.3,2z M48.3,27H15.8
		C9.5,27,4.5,22,4.5,15.8s5-11.3,11.3-11.3h32.5c6.3,0,11.3,5,11.3,11.3S54.5,27,48.3,27z"/>
	<path d="M59.5,15.8c0,6.3-5,11.3-11.3,11.3H23.8c3.5-2.5,5.8-6.5,5.8-11.3S27.3,7,23.8,4.5h24.5C54.5,4.5,59.5,9.5,59.5,15.8z"/>
	<path d="M48.3,34.5H15.8C8.3,34.5,2,40.8,2,48.3S8.3,62,15.8,62h32.5C55.8,62,62,55.8,62,48.3S55.8,34.5,48.3,34.5z M48.3,59.5
		H15.8c-6.3,0-11.3-5-11.3-11.3S9.5,37,15.8,37h32.5c6.3,0,11.3,5,11.3,11.3S54.5,59.5,48.3,59.5z"/>
	<path d="M40.3,59.5H15.8c-6.3,0-11.3-5-11.3-11.3S9.5,37,15.8,37h24.5c-3.5,2.5-5.8,6.5-5.8,11.3S36.8,57,40.3,59.5z"/>
	<path d="M29.5,15.8c0,4.8-2.3,8.8-5.8,11.3c-2.3,1.5-5,2.5-8,2.5V27C22,27,27,22,27,15.8S22,4.5,15.8,4.5V2c3,0,5.8,1,8,2.5
		C27.3,7,29.5,11,29.5,15.8z"/>
	<path d="M37,48.3c0,6.3,5,11.3,11.3,11.3V62c-3,0-5.8-1-8-2.5c-3.5-2.5-5.8-6.5-5.8-11.3s2.3-8.8,5.8-11.3c2.3-1.5,5-2.5,8-2.5V37
		C42,37,37,42,37,48.3z"/>
</g>
</svg>
