<?xml version="1.0" encoding="utf-8"?>
<!-- Generator: Adobe Illustrator 22.0.1, SVG Export Plug-In . SVG Version: 6.00 Build 0)  -->
<svg version="1.1" id="Layer_1" xmlns="http://www.w3.org/2000/svg" xmlns:xlink="http://www.w3.org/1999/xlink" x="0px" y="0px"
	 viewBox="0 0 64 64" style="enable-background:new 0 0 64 64;" xml:space="preserve">
<g>
	<path d="M59.1,12.3H4.4c-1.4,0-2.6,1.2-2.6,2.7v9.8c0,1.1,0.7,2.1,1.8,2.5C5.5,28,7,30,7,32.3s-1.4,4.3-3.4,5
		c-1.1,0.4-1.8,1.4-1.8,2.5v9.8c0,1.5,1.2,2.7,2.6,2.7h54.8c1.4,0,2.6-1.2,2.6-2.7V14.9C61.8,13.4,60.6,12.3,59.1,12.3z M59.1,49.6
		H21.3v-2.7c0-0.7-0.6-1.3-1.3-1.3s-1.3,0.6-1.3,1.3v2.7H4.4v-9.7c0,0,0.1-0.1,0.1-0.1c3-1.2,5.1-4.2,5.1-7.5s-2.1-6.3-5.1-7.5
		c-0.1,0-0.1-0.1-0.1-0.1v-9.7h14.3v2.7c0,0.7,0.6,1.3,1.3,1.3s1.3-0.6,1.3-1.3v-2.7h37.8V49.6z"/>
	<path d="M20,37.6c-0.7,0-1.3,0.6-1.3,1.3v2.7c0,0.7,0.6,1.3,1.3,1.3s1.3-0.6,1.3-1.3v-2.7C21.3,38.2,20.7,37.6,20,37.6z"/>
	<path d="M20,29.6c-0.7,0-1.3,0.6-1.3,1.3v2.7c0,0.7,0.6,1.3,1.3,1.3s1.3-0.6,1.3-1.3v-2.7C21.3,30.2,20.7,29.6,20,29.6z"/>
	<path d="M20,21.6c-0.7,0-1.3,0.6-1.3,1.3v2.7c0,0.7,0.6,1.3,1.3,1.3s1.3-0.6,1.3-1.3v-2.7C21.3,22.2,20.7,21.6,20,21.6z"/>
	<path d="M36.3,30.3c2.5,0,4.6-2.1,4.6-4.7s-2-4.7-4.6-4.7c-2.5,0-4.6,2.1-4.6,4.7S33.8,30.3,36.3,30.3z M36.3,23.6c1.1,0,2,0.9,2,2
		c0,1.1-0.8,2-2,2s-2-0.9-2-2C34.4,24.4,35.2,23.6,36.3,23.6z"/>
	<path d="M46.1,34.3c-2.5,0-4.6,2.1-4.6,4.7c0,2.6,2,4.7,4.6,4.7c2.5,0,4.6-2.1,4.6-4.7C50.7,36.3,48.6,34.3,46.1,34.3z M46.1,40.9
		c-1.1,0-2-0.9-2-2c0-1.1,0.8-2,2-2c1.1,0,2,0.9,2,2C48.1,40,47.2,40.9,46.1,40.9z"/>
	<path d="M32.2,43.3c0.3,0.2,0.5,0.3,0.8,0.3c0.4,0,0.7-0.1,1-0.5l16.3-20c0.5-0.5,0.4-1.4-0.2-1.9c-0.5-0.5-1.4-0.4-1.8,0.2
		L32,41.5C31.6,42,31.7,42.8,32.2,43.3z"/>
</g>
</svg>
